/vscmnt/brussel_pixiu_data/_data_brussel/112/vsc11236/PredSimResults/SUBJ09mtu3D/weighted-LRposFixed/trackIG/worker_03.mot
version=1
nRows=10
nColumns=50
inDegrees=yes
endheader
                time	         pelvis_tilt	         pelvis_list	     pelvis_rotation	           pelvis_tx	           pelvis_ty	           pelvis_tz	       hip_flexion_r	     hip_adduction_r	      hip_rotation_r	        knee_angle_r	       ankle_angle_r	         mtp_angle_r	       hip_flexion_l	     hip_adduction_l	      hip_rotation_l	        knee_angle_l	       ankle_angle_l	         mtp_angle_l	    lumbar_extension	      lumbar_bending	     lumbar_rotation	 ercspn_r/activation	 intobl_r/activation	 extobl_r/activation	    abd_r/activation	    add_r/activation	hamstrings_r/activation	bifemsh_r/activation	glut_max_r/activation	iliopsoas_r/activation	rect_fem_r/activation	  vasti_r/activation	gastroc_r/activation	 soleus_r/activation	tib_ant_r/activation	 ercspn_l/activation	 intobl_l/activation	 extobl_l/activation	    abd_l/activation	    add_l/activation	hamstrings_l/activation	bifemsh_l/activation	glut_max_l/activation	iliopsoas_l/activation	rect_fem_l/activation	  vasti_l/activation	gastroc_l/activation	 soleus_l/activation	tib_ant_l/activation	
          1.28431729	         -7.64817099	         -4.56607849	          7.68940734	          1.48980806	          0.98178375	         -0.01314841	         31.18840427	          1.28718785	         -5.26617478	         -1.79366274	          6.66137426	          0.21375305	        -10.62890948	         -4.76591680	          6.10815588	         -5.74622416	         11.29839190	         26.13751809	         -0.57739836	          2.82925176	         -3.67859325	          0.09429384	          0.13015186	          0.03431908	          0.01214052	          0.06046945	          0.14585922	          0.21454166	          0.00999999	          0.13169976	          0.00999999	          0.00999999	          0.00999999	          0.00999999	          0.26099846	          0.03543807	          0.00999999	          0.00999999	          0.06066462	          0.01020318	          0.02382062	          0.14484007	          0.05729781	          0.49917783	          0.00999999	          0.00999999	          0.35315877	          0.29095056	          0.01715202	
          1.29716047	         -7.74774473	         -4.50388084	          7.70203567	          1.50770542	          0.97955374	         -0.01288623	         31.42484605	          1.38593309	         -5.06475199	         -3.66290807	          6.25582958	          0.21929578	        -10.89692045	         -4.72267003	          5.71412324	         -7.02284945	         10.71037462	         28.10970752	         -0.29316818	          3.15076299	         -3.79503249	          0.07766865	          0.10821766	          0.02826819	          0.00999999	          0.10925101	          0.12609121	          0.17671525	          0.06489731	          0.10847943	          0.00999999	          0.00999999	          0.02336285	          0.01473923	          0.27189988	          0.07831360	          0.00999999	          0.00999999	          0.04996868	          0.03449619	          0.01962075	          0.11930293	          0.04719548	          0.50770055	          0.00999999	          0.00999999	          0.32664335	          0.27444070	          0.01412790	
          1.31000364	         -7.82630641	         -4.43721300	          7.66665719	          1.52607105	          0.97758127	         -0.01255293	         31.46819406	          1.47154086	         -4.84090720	         -5.45720413	          5.79530205	          0.20101214	        -11.04976043	         -4.66403236	          5.29678245	         -8.58717369	          9.96468855	         30.15503767	          0.01796373	          3.47707084	         -3.88146802	          0.06397468	          0.08913752	          0.02328415	          0.05861983	          0.09256158	          0.11035809	          0.14555812	          0.11170855	          0.08935313	          0.00999999	          0.00999999	          0.01924368	          0.01214052	          0.32228262	          0.07473414	          0.00999999	          0.00999999	          0.04115857	          0.02841407	          0.02179086	          0.09826831	          0.03887432	          0.49327687	          0.00999999	          0.01789420	          0.29774272	          0.25448311	          0.01163698	
          1.32284681	         -7.88700287	         -4.35965545	          7.58358942	          1.54459320	          0.97612424	         -0.01212260	         31.33679244	          1.56444276	         -4.65301372	         -6.94729127	          5.17146174	          0.17901655	        -10.99328956	         -4.57881360	          4.86501951	        -10.55175148	          8.99856540	         32.26735726	          0.32254252	          3.79777437	         -3.93401701	          0.07325529	          0.07342145	          0.01917886	          0.11817910	          0.12046323	          0.09151063	          0.11989438	          0.16359942	          0.07359905	          0.00999999	          0.00999999	          0.01585078	          0.00999999	          0.35675015	          0.10697215	          0.00999999	          0.00999999	          0.03390179	          0.03697870	          0.02037650	          0.08094237	          0.03202029	          0.47625162	          0.01000000	          0.01473923	          0.24524691	          0.21120653	          0.00999999	
          1.33568999	         -7.92880315	         -4.27490890	          7.45633897	          1.56301430	          0.97535792	         -0.01160491	         31.11299421	          1.67222307	         -4.49314018	         -8.32594214	          4.68941146	          0.14787558	        -10.64431060	         -4.46701823	          4.42074552	        -13.03270187	          7.81142651	         34.32704393	          0.59725558	          4.11807917	         -3.95047562	          0.07040566	          0.06047632	          0.01579738	          0.15505160	          0.14217298	          0.07537614	          0.09875548	          0.19721472	          0.06062260	          0.00999999	          0.00999999	          0.01305609	          0.00999999	          0.37827008	          0.13718899	          0.00999999	          0.00999999	          0.02792448	          0.05334831	          0.01736680	          0.06667120	          0.02637470	          0.44122822	          0.00999999	          0.01214052	          0.20200678	          0.17396815	          0.00999999	
          1.34853316	         -7.95009895	         -4.18390766	          7.28683632	          1.58115030	          0.97532920	         -0.01101599	         30.84223805	          1.79074721	         -4.34545462	         -9.67151225	          4.41907051	          0.12783557	         -9.95466211	         -4.33038755	          3.96018608	        -16.08963242	          6.41820683	         36.12636421	          0.82695212	          4.43926983	         -3.92906668	          0.07127391	          0.04981358	          0.01301211	          0.17181299	          0.13580837	          0.06438395	          0.08134364	          0.20906285	          0.04993407	          0.00999999	          0.06098704	          0.01075413	          0.00999999	          0.38399829	          0.15660900	          0.00999999	          0.00999999	          0.02300104	          0.07538429	          0.02298132	          0.05491623	          0.02172451	          0.38188583	          0.00999999	          0.00999999	          0.16639043	          0.14329536	          0.00999999	
          1.36137633	         -7.95132329	         -4.07687436	          7.07755722	          1.59890418	          0.97604967	         -0.01039139	         30.48683502	          1.90933284	         -4.19200503	        -10.88106958	          4.25837392	          0.11009969	         -8.92240545	         -4.16528914	          3.47499661	        -19.70049136	          4.88349244	         37.25965805	          1.00564033	          4.75158120	         -3.86936930	          0.05870742	          0.04103081	          0.01071791	          0.16854564	          0.11186364	          0.05537078	          0.06700173	          0.19605429	          0.04113006	          0.00999999	          0.13612452	          0.00999999	          0.00999999	          0.38469340	          0.16517839	          0.00999999	          0.00999999	          0.01894566	          0.08889586	          0.02172451	          0.04523381	          0.01789420	          0.31455452	          0.00999999	          0.00999999	          0.13705369	          0.11803058	          0.00999999	
          1.37421951	         -7.93447910	         -3.94262257	          6.82947204	          1.61625042	          0.97751716	         -0.00976281	         29.98284967	          2.01969438	         -4.00931635	        -11.83693520	          4.21028227	          0.09622856	         -7.58128819	         -3.97153972	          2.96200783	        -23.77467797	          3.22722788	         37.40298055	          1.13347610	          5.04265314	         -3.77135019	          0.04835656	          0.03379656	          0.00999999	          0.16051214	          0.09214066	          0.05154758	          0.05518848	          0.17528655	          0.03387831	          0.00999999	          0.18645633	          0.00999999	          0.00999999	          0.37649648	          0.16781352	          0.00999999	          0.00999999	          0.01560530	          0.09926158	          0.01789420	          0.06401368	          0.01473923	          0.25909458	          0.00999999	          0.00999999	          0.11288939	          0.09722029	          0.00999999	
          1.38706268	         -7.90223399	         -3.77163676	          6.54272173	          1.63320536	          0.97966318	         -0.00915660	         29.29013908	          2.11260201	         -3.77882816	        -12.46797063	          4.26880933	          0.08784700	         -5.98537984	         -3.74841998	          2.44164803	        -28.15297461	          1.32004488	         36.59543196	          1.21486291	          5.30182832	         -3.63472136	          0.03983069	          0.02783780	          0.00999999	          0.15468815	          0.07589510	          0.04850331	          0.04545805	          0.15340904	          0.02790514	          0.00999999	          0.21207073	          0.00999999	          0.00999999	          0.36451157	          0.16541502	          0.00999999	          0.00999999	          0.01285389	          0.10984117	          0.01473923	          0.07556727	          0.01214052	          0.21341293	          0.00999999	          0.00999999	          0.09298556	          0.08007912	          0.02437979	
          1.39990585	         -7.85704429	         -3.55560451	          6.21626909	          1.64976378	          0.98234704	         -0.00859385	         28.41628984	          2.17633317	         -3.48213942	        -12.78365006	          4.42215345	          0.08557492	         -4.19166206	         -3.48800273	          1.94091527	        -32.70227957	         -0.70445704	         34.58154362	          1.25041640	          5.52010591	         -3.45863791	          0.03280803	          0.02292964	          0.00999999	          0.14664223	          0.06251383	          0.04529620	          0.03744322	          0.12636109	          0.02298511	          0.00999999	          0.20774275	          0.00999999	          0.00999999	          0.34526610	          0.16696766	          0.00999999	          0.04581725	          0.01058759	          0.11202498	          0.01214052	          0.06224380	          0.00999999	          0.17578553	          0.00999999	          0.00999999	          0.07659103	          0.06596016	          0.08370202	
